<?xml version="1.0" standalone="no"?>
<!DOCTYPE svg PUBLIC "-//W3C//DTD SVG 20010904//EN"
 "http://www.w3.org/TR/2001/REC-SVG-20010904/DTD/svg10.dtd">
<svg version="1.0" xmlns="http://www.w3.org/2000/svg"
 width="400.000000pt" height="400.000000pt" viewBox="0 0 400.000000 400.000000"
 preserveAspectRatio="xMidYMid meet">
<metadata>
Created by potrace 1.14, written by Peter Selinger 2001-2017
</metadata>
<g transform="translate(0.000000,400.000000) scale(0.100000,-0.100000)"
fill="#000000" stroke="none">
<path d="M1813 3756 c-220 -42 -404 -137 -561 -290 -163 -158 -268 -357 -307
-582 -45 -261 16 -543 168 -769 57 -85 187 -216 274 -276 521 -360 1247 -179
1532 381 90 176 116 287 116 490 0 197 -26 311 -108 475 -136 273 -382 471
-682 551 -123 32 -318 41 -432 20z m-53 -511 l0 -75 75 0 74 0 3 73 3 72 73 3
72 3 0 -76 0 -75 75 0 74 0 3 73 3 72 73 3 72 3 0 -78 0 -79 -75 -74 -76 -75
3 -75 3 -75 115 -5 c170 -7 163 -2 296 -235 65 -112 69 -124 69 -181 0 -49 -5
-68 -27 -101 -48 -73 -71 -78 -330 -78 -297 0 -271 -23 -278 248 l-5 202 -70
0 -70 0 -5 -207 c-4 -182 -7 -210 -23 -225 -16 -16 -40 -18 -240 -18 -122 0
-234 3 -249 8 -77 21 -138 127 -119 208 9 40 140 275 179 321 39 47 78 58 197
58 l105 0 0 78 -1 77 -74 80 -75 80 0 66 c0 36 3 69 7 72 3 4 37 7 75 7 l68 0
0 -75z"/>
<path d="M1946 3050 c-29 -35 -39 -76 -34 -140 l3 -45 70 0 70 0 3 60 c4 74
-1 93 -33 128 -33 35 -47 34 -79 -3z"/>
<path d="M1571 2701 c-10 -10 -49 -72 -86 -137 -49 -88 -64 -123 -57 -134 7
-12 40 -16 171 -18 l161 -2 0 155 0 155 -85 0 c-70 0 -88 -3 -104 -19z"/>
<path d="M2217 2713 c-4 -3 -7 -73 -7 -155 l0 -148 158 0 c155 0 182 5 182 35
0 15 -139 258 -153 267 -15 10 -171 10 -180 1z"/>
<path d="M1867 1182 l-48 -3 3 -37 3 -37 50 0 c49 0 50 0 53 34 4 42 -2 47
-61 43z"/>
<path d="M370 924 l0 -256 143 4 c120 3 148 7 182 25 89 47 119 106 120 233 0
79 -4 102 -22 135 -51 96 -98 115 -283 115 l-140 0 0 -256z m265 152 c85 -36
101 -216 24 -280 -27 -23 -40 -26 -105 -26 l-74 0 0 160 0 160 60 0 c33 0 76
-6 95 -14z"/>
<path d="M1260 925 l0 -255 45 0 c38 0 45 3 45 20 0 24 6 25 26 5 21 -21 90
-37 125 -30 37 8 85 48 106 89 25 46 23 160 -2 211 -40 80 -139 110 -212 65
l-33 -20 0 85 0 85 -50 0 -50 0 0 -255z m223 35 c75 -59 44 -220 -43 -220 -86
0 -118 161 -43 219 33 26 53 26 86 1z"/>
<path d="M1670 925 l0 -255 50 0 50 0 0 255 0 255 -50 0 -50 0 0 -255z"/>
<path d="M2492 928 l3 -253 155 0 c174 0 203 9 247 75 41 59 21 155 -39 186
l-29 15 25 20 c52 41 52 131 0 180 -25 23 -32 24 -195 27 l-169 3 2 -253z
m263 160 c33 -15 42 -51 21 -83 -15 -23 -22 -25 -96 -25 l-80 0 0 53 c0 30 3
57 7 60 11 11 120 8 148 -5z m30 -213 c32 -31 32 -59 0 -91 -23 -23 -31 -25
-102 -22 l-78 3 -3 68 -3 67 81 0 c73 0 83 -3 105 -25z"/>
<path d="M2118 1032 c-16 -9 -28 -20 -28 -24 0 -5 -4 -8 -10 -8 -5 0 -10 9
-10 20 0 17 -7 20 -45 20 l-45 0 0 -185 0 -185 50 0 50 0 0 121 c0 151 12 179
76 179 55 0 63 -21 66 -165 l3 -130 48 -3 47 -3 0 156 0 157 -34 34 c-30 30
-40 34 -87 34 -33 0 -65 -7 -81 -18z"/>
<path d="M3403 1030 c-39 -24 -53 -48 -53 -95 0 -51 31 -78 115 -99 72 -18
115 -39 115 -56 0 -21 -41 -50 -71 -50 -22 0 -40 9 -59 30 -22 24 -36 30 -69
30 -33 0 -41 -3 -41 -19 0 -10 9 -30 21 -45 33 -42 77 -60 149 -60 100 0 157
39 167 112 8 61 -30 97 -129 121 -90 22 -98 26 -98 52 0 40 89 46 113 8 9 -14
24 -19 60 -19 46 0 48 1 41 23 -17 58 -70 87 -161 87 -50 0 -77 -5 -100 -20z"/>
<path d="M862 891 c3 -133 5 -153 24 -178 42 -57 137 -65 195 -16 l29 25 0
-27 c0 -25 2 -26 48 -23 l47 3 3 183 2 182 -48 0 -49 0 -5 -126 c-4 -106 -8
-128 -24 -144 -30 -30 -67 -34 -95 -12 -23 19 -24 26 -27 151 l-4 131 -50 0
-49 0 3 -149z"/>
<path d="M1822 858 l3 -183 50 0 50 0 3 183 2 182 -55 0 -55 0 2 -182z"/>
<path d="M2960 901 c0 -76 5 -152 11 -169 24 -70 134 -91 203 -39 l36 28 0
-25 c0 -24 3 -26 45 -26 l45 0 0 185 0 185 -49 0 -49 0 -4 -130 c-3 -147 -11
-164 -74 -164 -57 0 -64 18 -64 166 l0 128 -50 0 -50 0 0 -139z"/>
</g>
</svg>
